<svg width="60" height="105" viewBox="0 0 60 105" fill="none" xmlns="http://www.w3.org/2000/svg">
<g id="Group 24">
<rect id="Rectangle 1" x="2.70654" y="2" width="54.587" height="101" rx="27.2935" stroke="#B52184" stroke-width="4"/>
<path id="Vector" d="M29.5448 30.0042C29.2708 30.0387 29.0686 30.2768 29.0794 30.5528V74.0352L15.6047 62.0558C15.5023 61.9568 15.3647 61.903 15.2223 61.906C14.9994 61.913 14.8043 62.0581 14.7338 62.2695C14.6634 62.4809 14.7323 62.7141 14.9067 62.8532L29.2625 75.614C29.4628 75.7883 29.7602 75.7883 29.9605 75.614L44.3163 62.8532C44.4361 62.765 44.5136 62.6307 44.5296 62.4827C44.5455 62.3347 44.4992 62.1867 44.4012 62.0747C44.3033 61.9631 44.1628 61.8971 44.014 61.8934C43.8653 61.8897 43.7218 61.9486 43.6183 62.0558L30.1436 74.0351V30.5528C30.1495 30.3966 30.0865 30.2457 29.9715 30.14C29.8562 30.0343 29.7004 29.9846 29.5453 30.0042L29.5448 30.0042Z" fill="#B52184" stroke="#B52184" stroke-width="2.61398"/>
</g>
</svg>
